<svg width="24" height="20" viewBox="0 0 24 20" fill="none" xmlns="http://www.w3.org/2000/svg">
<path d="M18 8H16.74C16.3659 6.551 15.5928 5.23599 14.5086 4.2044C13.4245 3.1728 12.0727 2.46599 10.6069 2.16428C9.14113 1.86256 7.6201 1.97804 6.21666 2.49759C4.81322 3.01714 3.58364 3.91993 2.66766 5.10338C1.75167 6.28683 1.18599 7.70348 1.03491 9.19235C0.883828 10.6812 1.15339 12.1826 1.81298 13.526C2.47256 14.8693 3.49572 16.0007 4.76619 16.7916C6.03665 17.5824 7.50348 18.0011 9 18H18C19.3261 18 20.5979 17.4732 21.5355 16.5355C22.4732 15.5979 23 14.3261 23 13C23 11.6739 22.4732 10.4021 21.5355 9.46447C20.5979 8.52678 19.3261 8 18 8Z" stroke="#F3F3F3" stroke-width="4" stroke-linecap="round" stroke-linejoin="round"/>
</svg>
