<svg
            width="24"
            height="25"
            viewBox="0 0 24 25"
            fill="none"
            xmlns="http://www.w3.org/2000/svg"
          >
            <path
              d="M20 18.5C21.1 18.5 21.99 17.6 21.99 16.5L22 6.5C22 5.4 21.1 4.5 20 4.5H4C2.9 4.5 2 5.4 2 6.5V16.5C2 17.6 2.9 18.5 4 18.5H1C0.45 18.5 0 18.95 0 19.5C0 20.05 0.45 20.5 1 20.5H23C23.55 20.5 24 20.05 24 19.5C24 18.95 23.55 18.5 23 18.5H20ZM5 6.5H19C19.55 6.5 20 6.95 20 7.5V15.5C20 16.05 19.55 16.5 19 16.5H5C4.45 16.5 4 16.05 4 15.5V7.5C4 6.95 4.45 6.5 5 6.5Z"
              fill="white"
            />
          </svg>